<?xml version="1.0" standalone="no"?>
<!DOCTYPE svg PUBLIC "-//W3C//DTD SVG 20010904//EN"
 "http://www.w3.org/TR/2001/REC-SVG-20010904/DTD/svg10.dtd">
<svg version="1.0" xmlns="http://www.w3.org/2000/svg"
 width="260.000000pt" height="260.000000pt" viewBox="0 0 260.000000 260.000000"
 preserveAspectRatio="xMidYMid meet">
<metadata>
Created by potrace 1.11, written by Peter Selinger 2001-2013
</metadata>
<g transform="translate(0.000000,260.000000) scale(0.100000,-0.100000)"
fill="#000000" stroke="none">
<path d="M1097 2130 c-33 -29 -56 -76 -73 -154 -9 -38 -11 -40 -70 -56 -74
-20 -128 -50 -132 -74 -6 -28 34 -62 96 -81 70 -22 82 -31 82 -61 0 -13 13
-38 30 -57 34 -40 51 -114 29 -128 -8 -5 -29 -9 -46 -9 -38 0 -42 -16 -17 -56
21 -31 15 -37 -61 -59 -94 -26 -182 -74 -216 -116 -16 -21 -50 -84 -75 -141
-25 -57 -49 -107 -53 -113 -17 -23 -31 -97 -31 -164 0 -82 16 -120 100 -239
47 -67 54 -73 83 -70 l32 3 5 339 c5 308 7 340 22 345 9 3 239 4 510 1 l493
-5 5 -340 5 -340 28 -3 c37 -4 48 6 110 102 53 81 65 104 87 164 12 32 5 86
-20 147 -4 11 -19 49 -33 85 -42 108 -87 196 -123 238 -35 42 -129 88 -227
112 -26 7 -50 16 -53 21 -3 5 4 23 16 39 25 35 19 50 -20 50 -33 0 -60 23 -60
50 0 10 10 31 23 47 38 47 55 78 59 108 3 25 10 30 62 47 76 25 106 45 106 73
0 32 -26 51 -105 76 -88 28 -93 32 -100 83 -10 61 -47 128 -84 149 -29 18 -38
18 -111 6 -63 -10 -93 -10 -143 -1 -88 16 -92 16 -130 -18z m108 -442 c48 -31
45 -48 -7 -48 -48 0 -108 31 -108 55 0 24 74 19 115 -7z m295 3 c0 -25 -61
-53 -108 -49 -46 4 -47 16 -3 45 44 30 111 32 111 4z"/>
<path d="M847 1183 c-4 -3 -7 -116 -7 -250 l0 -243 455 0 455 0 -2 248 -3 247
-446 3 c-245 1 -449 -1 -452 -5z"/>
<path d="M844 606 c-3 -8 -4 -23 -2 -33 3 -17 28 -18 456 -21 l452 -2 0 35 0
35 -450 0 c-383 0 -451 -2 -456 -14z"/>
</g>
</svg>
